<svg id="SvgjsSvg1154" width="589" height="481" xmlns="http://www.w3.org/2000/svg" version="1.1" xmlns:xlink="http://www.w3.org/1999/xlink" xmlns:svgjs="http://svgjs.com/svgjs"><defs id="SvgjsDefs1155"><marker id="SvgjsMarker1206" markerWidth="14" markerHeight="10" refX="10" refY="5" viewBox="0 0 14 10" orient="auto" markerUnits="userSpaceOnUse" stroke-dasharray="0,0"><path id="SvgjsPath1207" d="M0,0 L14,5 L0,10 L0,0" fill="#323232" stroke="#323232" stroke-width="1"></path></marker><marker id="SvgjsMarker1210" markerWidth="14" markerHeight="10" refX="10" refY="5" viewBox="0 0 14 10" orient="auto" markerUnits="userSpaceOnUse" stroke-dasharray="0,0"><path id="SvgjsPath1211" d="M0,0 L14,5 L0,10 L0,0" fill="#323232" stroke="#323232" stroke-width="1"></path></marker><marker id="SvgjsMarker1214" markerWidth="14" markerHeight="10" refX="10" refY="5" viewBox="0 0 14 10" orient="auto" markerUnits="userSpaceOnUse" stroke-dasharray="0,0"><path id="SvgjsPath1215" d="M0,0 L14,5 L0,10 L0,0" fill="#323232" stroke="#323232" stroke-width="1"></path></marker><marker id="SvgjsMarker1218" markerWidth="14" markerHeight="10" refX="10" refY="5" viewBox="0 0 14 10" orient="auto" markerUnits="userSpaceOnUse" stroke-dasharray="0,0"><path id="SvgjsPath1219" d="M0,0 L14,5 L0,10 L0,0" fill="#323232" stroke="#323232" stroke-width="1"></path></marker><marker id="SvgjsMarker1222" markerWidth="14" markerHeight="10" refX="10" refY="5" viewBox="0 0 14 10" orient="auto" markerUnits="userSpaceOnUse" stroke-dasharray="0,0"><path id="SvgjsPath1223" d="M0,0 L14,5 L0,10 L0,0" fill="#323232" stroke="#323232" stroke-width="1"></path></marker><marker id="SvgjsMarker1226" markerWidth="14" markerHeight="10" refX="10" refY="5" viewBox="0 0 14 10" orient="auto" markerUnits="userSpaceOnUse" stroke-dasharray="0,0"><path id="SvgjsPath1227" d="M0,0 L14,5 L0,10 L0,0" fill="#323232" stroke="#323232" stroke-width="1"></path></marker><marker id="SvgjsMarker1230" markerWidth="14" markerHeight="10" refX="10" refY="5" viewBox="0 0 14 10" orient="auto" markerUnits="userSpaceOnUse" stroke-dasharray="0,0"><path id="SvgjsPath1231" d="M0,0 L14,5 L0,10 L0,0" fill="#323232" stroke="#323232" stroke-width="1"></path></marker></defs><g id="SvgjsG1156" transform="translate(25.0103759765625,25)"><path id="SvgjsPath1157" d="M 0 0L 539 0L 539 431L 0 431Z" stroke="none" fill-opacity="1" fill="#ffffff"></path><g id="SvgjsG1158"><text id="SvgjsText1159" font-family="微软雅黑" text-anchor="middle" font-size="13px" width="519px" fill="#323232" font-weight="400" align="middle" lineHeight="125%" anchor="middle" family="微软雅黑" size="13px" weight="400" font-style="" opacity="1" y="204.875" transform="rotate(0)"></text></g></g><g id="SvgjsG1160" transform="translate(323.0103759765625,174.5)"><path id="SvgjsPath1161" d="M 0 0L 148 0L 148 56L 0 56Z" stroke="rgba(50,50,50,1)" stroke-width="2" fill-opacity="1" fill="#fff9c4"></path><g id="SvgjsG1162"><text id="SvgjsText1163" font-family="微软雅黑" text-anchor="middle" font-size="13px" width="128px" fill="#323232" font-weight="400" align="middle" lineHeight="125%" anchor="middle" family="微软雅黑" size="13px" weight="400" font-style="" opacity="1" y="8.875" transform="rotate(0)"><tspan id="SvgjsTspan1164" dy="16" x="74"><tspan id="SvgjsTspan1165" style="text-decoration:;">Create custom </tspan></tspan><tspan id="SvgjsTspan1166" dy="16" x="74"><tspan id="SvgjsTspan1167" style="text-decoration:;">YAML file</tspan></tspan></text></g></g><g id="SvgjsG1168" transform="translate(33.0103759765625,203.5)"><path id="SvgjsPath1169" d="M 0 0L 148 0L 148 56L 0 56Z" stroke="rgba(50,50,50,1)" stroke-width="2" fill-opacity="1" fill="#ffb74d"></path><g id="SvgjsG1170"><text id="SvgjsText1171" font-family="微软雅黑" text-anchor="middle" font-size="13px" width="128px" fill="#323232" font-weight="400" align="middle" lineHeight="125%" anchor="middle" family="微软雅黑" size="13px" weight="400" font-style="" opacity="1" y="8.875" transform="rotate(0)"><tspan id="SvgjsTspan1172" dy="16" x="74"><tspan id="SvgjsTspan1173" style="text-decoration:;">Run the default task</tspan></tspan><tspan id="SvgjsTspan1174" dy="16" x="74"><tspan id="SvgjsTspan1175" style="text-decoration:;">using WebUI</tspan></tspan></text></g></g><g id="SvgjsG1176" transform="translate(143.0103759765625,42)"><path id="SvgjsPath1177" d="M 19 0L 227 0C 252.33333333333334 0 252.33333333333334 57 227 57L 19 57C -6.333333333333333 57 -6.333333333333333 0 19 0Z" stroke="rgba(50,50,50,1)" stroke-width="2" fill-opacity="1" fill="#c8e6c9"></path><g id="SvgjsG1178"><text id="SvgjsText1179" font-family="微软雅黑" text-anchor="middle" font-size="13px" width="226px" fill="#323232" font-weight="400" align="middle" lineHeight="125%" anchor="middle" family="微软雅黑" size="13px" weight="400" font-style="" opacity="1" y="17.875" transform="rotate(0)"></text></g></g><g id="SvgjsG1180" transform="translate(190.0103759765625,46)"><path id="SvgjsPath1181" d="M 0 0L 152 0L 152 49L 0 49Z" stroke="none" fill="none"></path><g id="SvgjsG1182"><text id="SvgjsText1183" font-family="微软雅黑" text-anchor="middle" font-size="18px" width="152px" fill="#323232" font-weight="700" align="middle" lineHeight="125%" anchor="middle" family="微软雅黑" size="18px" weight="700" font-style="" opacity="1" y="8.75" transform="rotate(0)"><tspan id="SvgjsTspan1184" dy="22" x="76"><tspan id="SvgjsTspan1185" style="text-decoration:;">How to run task</tspan></tspan></text></g></g><g id="SvgjsG1186" transform="translate(216.0103759765625,397)"><path id="SvgjsPath1187" d="M 16.666666666666668 0L 83.33333333333333 0C 105.55555555555556 0 105.55555555555556 50 83.33333333333333 50L 16.666666666666668 50C -5.555555555555556 50 -5.555555555555556 0 16.666666666666668 0Z" stroke="rgba(50,50,50,1)" stroke-width="2" fill-opacity="1" fill="#81c784"></path><g id="SvgjsG1188"><text id="SvgjsText1189" font-family="微软雅黑" text-anchor="middle" font-size="16px" width="80px" fill="#323232" font-weight="700" align="middle" lineHeight="125%" anchor="middle" family="微软雅黑" size="16px" weight="700" font-style="" opacity="1" y="11" transform="rotate(0)"><tspan id="SvgjsTspan1190" dy="20" x="50"><tspan id="SvgjsTspan1191" style="text-decoration:;">Done</tspan></tspan></text></g></g><g id="SvgjsG1192" transform="translate(234.0103759765625,270.5)"><path id="SvgjsPath1193" d="M 0 0L 148 0L 148 56L 0 56Z" stroke="rgba(50,50,50,1)" stroke-width="2" fill-opacity="1" fill="#ffe0b2"></path><g id="SvgjsG1194"><text id="SvgjsText1195" font-family="微软雅黑" text-anchor="middle" font-size="13px" width="128px" fill="#323232" font-weight="400" align="middle" lineHeight="125%" anchor="middle" family="微软雅黑" size="13px" weight="400" font-style="" opacity="1" y="17.375" transform="rotate(0)"><tspan id="SvgjsTspan1196" dy="16" x="74"><tspan id="SvgjsTspan1197" style="text-decoration:;">Run notebook task</tspan></tspan></text></g></g><g id="SvgjsG1198" transform="translate(407.0103759765625,270.5)"><path id="SvgjsPath1199" d="M 0 0L 148 0L 148 56L 0 56Z" stroke="rgba(50,50,50,1)" stroke-width="2" fill-opacity="1" fill="#e0e0e0"></path><g id="SvgjsG1200"><text id="SvgjsText1201" font-family="微软雅黑" text-anchor="middle" font-size="13px" width="128px" fill="#323232" font-weight="400" align="middle" lineHeight="125%" anchor="middle" family="微软雅黑" size="13px" weight="400" font-style="" opacity="1" y="17.375" transform="rotate(0)"><tspan id="SvgjsTspan1202" dy="16" x="74"><tspan id="SvgjsTspan1203" style="text-decoration:;">Run shell task</tspan></tspan></text></g></g><g id="SvgjsG1204"><path id="SvgjsPath1205" d="M397.0103759765625 231.5L397.0103759765625 250.5L308.0103759765625 250.5L308.0103759765625 266.9" stroke="#323232" stroke-width="2" fill="none" marker-end="url(#SvgjsMarker1206)"></path></g><g id="SvgjsG1208"><path id="SvgjsPath1209" d="M397.0103759765625 231.5L397.0103759765625 250.5L481.0103759765625 250.5L481.0103759765625 266.9" stroke="#323232" stroke-width="2" fill="none" marker-end="url(#SvgjsMarker1210)"></path></g><g id="SvgjsG1212"><path id="SvgjsPath1213" d="M308.0103759765625 327.5L308.0103759765625 361.75L266.0103759765625 361.75L266.0103759765625 393.4" stroke="#323232" stroke-width="2" fill="none" marker-end="url(#SvgjsMarker1214)"></path></g><g id="SvgjsG1216"><path id="SvgjsPath1217" d="M491.0103759765625 326L491.0103759765625 362L266.0103759765625 362L266.0103759765625 393.4" stroke="#323232" stroke-width="2" fill="none" marker-end="url(#SvgjsMarker1218)"></path></g><g id="SvgjsG1220"><path id="SvgjsPath1221" d="M107.0103759765625 260.5L107.0103759765625 362.25L266.0103759765625 362.25L266.0103759765625 393.4" stroke="#323232" stroke-width="2" fill="none" marker-end="url(#SvgjsMarker1222)"></path></g><g id="SvgjsG1224"><path id="SvgjsPath1225" d="M266.0103759765625 100L266.0103759765625 136.25L107.0103759765625 136.25L107.0103759765625 199.9" stroke="#323232" stroke-width="2" fill="none" marker-end="url(#SvgjsMarker1226)"></path></g><g id="SvgjsG1228"><path id="SvgjsPath1229" d="M266.0103759765625 100L266.0103759765625 135.75L397.0103759765625 135.75L397.0103759765625 170.9" stroke="#323232" stroke-width="2" fill="none" marker-end="url(#SvgjsMarker1230)"></path></g></svg>